<svg version="1.1" id="Netflix_logo" xmlns="http://www.w3.org/2000/svg" xmlns:xlink="http://www.w3.org/1999/xlink"
	 x="0px" y="0px" viewBox="0 0 1427 383.4" style="enable-background:new 0 0 1427 383.4;" xml:space="preserve">
<style type="text/css">
	.st0{fill:#E50914;}
</style>
<g id="Netflix_logo">
	<g>
		<path class="st0" d="M1102.1,347.9c20.1,1.5,40.1,3.2,60.1,5V0.1h-60.1V347.9z M135.4,217L57.1,0.1H0v383.4
			c20-2.8,40-5.6,60.1-8.2V166.8l69.6,199.9c21.9-2.5,43.8-4.9,65.8-7.2V0.1h-60.1V217z M253.3,353.9c55.4-5,111-9.2,166.9-12.4
			v-59.2c-35.7,2.1-71.3,4.5-106.8,7.3v-89.6c23.3-0.2,54-0.9,81.2-0.6v-59.2c-21.7-0.1-56.6,0.3-81.2,0.6V59.8h106.8V0.1H253.3
			V353.9z M458.7,59.8h62.9v276.9c20-0.8,40-1.4,60.1-1.9v-275h62.9V0.1H458.7V59.8z M683.1,333.2l60.1,0V196.5h81.5v-59.2h-81.5
			V59.8h107.7V0.1H683.1V333.2z M1427,0.1h-66l-43.5,100.9L1278.4,0.1h-65l69.9,180.2L1207,357.1c21.1,2.1,42.1,4.3,63.2,6.6
			l44.4-102.8l43.9,113.3c22.9,2.9,45.7,6,68.5,9.3l0.1,0l-78.3-201.9L1427,0.1z M949.5,0h-60.1v336.1c54.6,1.9,109,4.6,163.2,8.2
			v-59.2c-34.3-2.3-68.6-4.2-103.1-5.8V0z"/>
	</g>
</g>
</svg>
